<svg width="384" height="261" viewBox="0 0 384 261" fill="none" xmlns="http://www.w3.org/2000/svg">
<g clip-path="url(#clip0_59_12)">
<path d="M310.28 165.772C310.622 165.802 310.965 165.732 311.263 165.57C311.562 165.408 311.801 165.164 311.948 164.869C312.095 164.574 312.143 164.243 312.085 163.921C312.028 163.599 311.868 163.302 311.627 163.07C311.593 162.909 311.568 162.793 311.534 162.632C311.55 162.598 311.567 162.564 311.584 162.53C311.967 161.77 312.578 161.135 313.34 160.704C314.101 160.273 314.98 160.066 315.865 160.108C316.75 160.151 317.602 160.441 318.315 160.942C319.027 161.443 319.568 162.133 319.869 162.926C321.072 166.088 322.645 169.272 322.909 172.571C323.025 174.03 322.874 175.496 322.463 176.905C325.969 170.446 327.974 163.346 328.34 156.086C328.43 154.265 328.412 152.439 328.288 150.619C328.184 149.127 328.012 147.643 327.771 146.166C326.454 138.151 323.156 130.548 318.147 123.981C315.638 122.532 313.657 120.386 312.47 117.834C312.04 116.916 311.751 115.944 311.614 114.948C311.903 114.997 312.197 115.033 312.486 115.064C312.576 115.072 312.671 115.081 312.762 115.09L312.796 115.093C313.114 115.12 313.434 115.06 313.718 114.919C314.001 114.778 314.235 114.562 314.392 114.297C314.549 114.032 314.623 113.73 314.603 113.426C314.584 113.123 314.472 112.831 314.282 112.587C314.164 112.434 314.046 112.282 313.928 112.13C313.748 111.895 313.564 111.665 313.385 111.43C313.364 111.408 313.344 111.384 313.326 111.36C313.12 111.092 312.913 110.829 312.707 110.561C313.135 109.989 313.697 109.519 314.348 109.187C316.603 108.063 319.589 109.043 321.082 111C322.58 112.957 322.75 115.618 322.082 117.951C321.441 119.933 320.45 121.797 319.15 123.463C319.262 123.613 319.379 123.759 319.491 123.909C321.536 126.664 323.293 129.604 324.735 132.685C324.514 129.295 325.142 125.903 326.569 122.789C328.002 119.891 330.539 117.51 332.791 115.049C335.496 112.094 340.669 113.665 340.929 117.574C340.931 117.612 340.934 117.65 340.936 117.688C340.612 117.843 340.294 118.009 339.982 118.186C339.59 118.411 339.279 118.743 339.089 119.138C338.898 119.534 338.839 119.975 338.917 120.404C338.995 120.832 339.207 121.229 339.526 121.54C339.845 121.852 340.256 122.065 340.705 122.151L340.751 122.16C340.585 123.238 340.334 124.301 339.998 125.342C339.032 128.247 337.446 130.931 335.337 133.226C333.229 135.521 330.645 137.377 327.747 138.677C327.557 138.76 327.371 138.842 327.181 138.92C328.568 143.293 329.35 147.818 329.509 152.383C329.593 155.076 329.448 157.77 329.076 160.441L329.095 160.346C329.85 157.392 331.655 154.776 334.205 152.94C337.99 150.255 343.191 149.435 347.236 147.321C347.666 147.084 348.159 146.97 348.656 146.991C349.152 147.011 349.632 147.167 350.039 147.438C350.446 147.71 350.763 148.087 350.952 148.524C351.141 148.961 351.194 149.44 351.106 149.905C351.099 149.939 351.092 149.972 351.085 150.005C350.488 150.206 349.904 150.442 349.338 150.712C349.014 150.867 348.696 151.033 348.384 151.21C347.992 151.435 347.68 151.767 347.49 152.162C347.3 152.558 347.24 152.999 347.318 153.428C347.397 153.856 347.609 154.253 347.928 154.564C348.247 154.876 348.658 155.089 349.106 155.175L349.152 155.184C349.185 155.19 349.214 155.196 349.247 155.202C348.134 157.431 346.625 159.461 344.788 161.204C342.52 163.312 339.823 164.957 336.862 166.038C333.902 167.12 330.74 167.615 327.571 167.494L327.566 167.494C326.532 171.008 325.117 174.411 323.343 177.647L310.061 177.059C310.02 176.917 309.984 176.77 309.948 176.628C311.174 176.756 312.412 176.741 313.634 176.582C312.704 175.389 311.776 174.187 310.846 172.994C310.826 172.972 310.806 172.948 310.788 172.924C310.317 172.313 309.841 171.707 309.37 171.097L309.37 171.096C309.431 169.292 309.737 167.502 310.279 165.772L310.28 165.772Z" fill="#F2F2F2"/>
<path d="M42.6546 56.5979C42.3153 56.648 41.9681 56.5978 41.6598 56.4541C41.3516 56.3103 41.0973 56.08 40.9313 55.7943C40.7654 55.5086 40.6959 55.1813 40.7322 54.8568C40.7685 54.5322 40.9089 54.2262 41.1343 53.98C41.1581 53.8171 41.1752 53.7001 41.199 53.5372C41.1801 53.5042 41.161 53.4713 41.1419 53.4384C40.7101 52.7027 40.0593 52.1047 39.2711 51.7194C38.483 51.3342 37.5926 51.1789 36.7119 51.2731C35.8312 51.3673 34.9995 51.7068 34.3211 52.2489C33.6427 52.791 33.148 53.5116 32.8991 54.3201C31.9037 57.5471 30.5405 60.8176 30.4912 64.1259C30.4701 65.5882 30.7161 67.0429 31.2181 68.4253C27.2988 62.1846 24.837 55.2158 23.9996 47.9915C23.7914 46.1784 23.6901 44.3557 23.696 42.5318C23.7023 41.0365 23.7777 39.5447 23.9222 38.0564C24.7159 29.9799 27.5138 22.1977 32.0862 15.3486C34.4961 13.755 36.3343 11.4974 37.3529 8.88022C37.7227 7.93904 37.9472 6.95193 38.0194 5.9496C37.7346 6.01551 37.4434 6.0684 37.1564 6.11627C37.0669 6.13006 36.9727 6.14438 36.8832 6.1582L36.8494 6.16316C36.5333 6.20955 36.2098 6.16811 35.918 6.04382C35.6261 5.91954 35.3782 5.71771 35.2042 5.46263C35.0302 5.20756 34.9375 4.9101 34.9372 4.6061C34.9369 4.30209 35.029 4.00448 35.2026 3.7491C35.3106 3.59023 35.4188 3.43142 35.5271 3.27267C35.6908 3.02789 35.8598 2.78712 36.0236 2.54238C36.043 2.51872 36.061 2.49403 36.0774 2.46842C36.266 2.18917 36.4551 1.91446 36.6437 1.63521C36.1787 1.08942 35.5873 0.653101 34.9158 0.360268C32.5924 -0.629865 29.6755 0.52383 28.3126 2.56493C26.9451 4.60649 26.9481 7.27199 27.7661 9.5615C28.5351 11.5021 29.6459 13.3042 31.051 14.8906C30.949 15.0469 30.8418 15.1993 30.7399 15.3557C28.8774 18.226 27.3155 21.263 26.0763 24.423C26.0769 21.0263 25.2292 17.6781 23.6028 14.6536C21.9839 11.8456 19.2968 9.61753 16.8892 7.29423C13.9973 4.50359 8.93619 6.37525 8.93119 10.2923C8.93115 10.3303 8.9312 10.3682 8.93135 10.4061C9.26505 10.5421 9.59329 10.6893 9.91607 10.8475C10.3218 11.0486 10.6542 11.3615 10.8697 11.7453C11.0852 12.1291 11.1736 12.5657 11.1236 12.9981C11.0735 13.4305 10.8871 13.8384 10.589 14.1684C10.2908 14.4984 9.89473 14.7351 9.45263 14.8475L9.40736 14.859C9.64262 15.9245 9.96274 16.9715 10.365 17.9908C11.5178 20.8335 13.276 23.4191 15.5293 25.5856C17.7827 27.7521 20.4826 29.4527 23.4598 30.5809C23.6549 30.6518 23.8453 30.7233 24.0398 30.7898C22.9403 35.2357 22.4536 39.7987 22.5921 44.3639C22.6828 47.0563 23.0024 49.7374 23.5478 52.3808L23.5228 52.2877C22.5768 49.3834 20.6053 46.8783 17.9412 45.1956C13.9892 42.738 8.74433 42.2247 4.56994 40.3524C4.12494 40.1416 3.62579 40.0561 3.13137 40.106C2.63694 40.156 2.16785 40.3393 1.77944 40.6344C1.39102 40.9294 1.09947 41.3239 0.939176 41.7713C0.778883 42.2187 0.75653 42.7003 0.874755 43.1594C0.883792 43.192 0.892923 43.2246 0.902143 43.2571C1.51142 43.4227 2.10926 43.6242 2.69219 43.8604C3.02588 43.9965 3.35412 44.1436 3.67689 44.3018C4.08267 44.5029 4.41507 44.8159 4.63053 45.1996C4.84599 45.5834 4.93447 46.0201 4.88438 46.4525C4.83428 46.8848 4.64795 47.2928 4.34979 47.6228C4.05164 47.9528 3.65556 48.1895 3.21346 48.3019L3.16815 48.3133C3.13551 48.3213 3.10759 48.3288 3.075 48.3367C4.33078 50.4961 5.96824 52.434 7.91565 54.0654C10.3162 56.0357 13.1149 57.5192 16.14 58.4249C19.1652 59.3306 22.3531 59.6394 25.5082 59.3324L25.513 59.3319C26.7734 62.7787 28.4073 66.0917 30.3883 69.2174L43.6071 67.8507C43.6385 67.7062 43.6646 67.5577 43.6913 67.4137C42.4761 67.6133 41.2398 67.6708 40.0099 67.5847C40.8598 66.3394 41.7086 65.0851 42.5584 63.8398C42.5779 63.8161 42.5959 63.7915 42.6123 63.7659C43.0428 63.129 43.4785 62.4961 43.909 61.8592L43.9092 61.8585C43.7304 60.0611 43.3088 58.2931 42.655 56.5981L42.6546 56.5979Z" fill="#F2F2F2"/>
<path d="M225.283 51.9415C225.937 52.1126 226.544 52.418 227.061 52.8361C227.578 53.2543 227.991 53.7751 228.274 54.3618C228.556 54.9484 228.699 55.5867 228.693 56.2318C228.688 56.8768 228.533 57.5128 228.241 58.095L235.335 65.5914L231.594 70.7999L221.733 60.0799C220.736 59.5486 219.979 58.6883 219.606 57.662C219.232 56.6358 219.267 55.5149 219.705 54.5117C220.143 53.5086 220.952 52.6928 221.98 52.2191C223.008 51.7454 224.183 51.6466 225.283 51.9415V51.9415Z" fill="#A0616A"/>
<path d="M291.692 70.3489C291.052 69.3596 290.213 68.4999 289.224 67.8193C288.234 67.1387 287.113 66.6505 285.924 66.3828C284.735 66.1151 283.503 66.073 282.297 66.2591C281.091 66.4451 279.936 66.8556 278.897 67.467L255.568 81.2009L230.403 60.868L224.142 66.409L251.942 100.694L288.074 82.7895C287.231 83.2073 292.71 71.9253 291.692 70.3489Z" fill="#CCCCCC"/>
<path d="M245.476 116.015C245.479 126.967 243.211 137.812 238.803 147.93C234.395 158.049 227.932 167.243 219.785 174.987C211.638 182.731 201.966 188.874 191.321 193.064C180.675 197.254 169.266 199.41 157.744 199.407C109.292 199.407 70.0121 162.071 70.0121 116.015C70.0037 107.056 71.5146 98.1552 74.4864 89.6538C80.3212 73.0504 91.4992 58.6107 106.44 48.3764C121.381 38.142 139.328 32.6311 157.744 32.6227C173.627 32.6175 189.213 36.712 202.839 44.4693C216.464 52.2266 227.618 63.3554 235.109 76.6677C236.967 79.9522 238.587 83.3529 239.959 86.8462C240.149 87.3327 240.334 87.8191 240.514 88.3102V88.3148C241.319 90.4737 242.027 92.6728 242.64 94.9121C244.529 101.802 245.482 108.894 245.476 116.015V116.015Z" fill="#3F3D56"/>
<path d="M148.146 59.7512C144.203 57.7246 139.825 56.5806 135.347 56.4064C130.868 56.2323 126.407 57.0326 122.304 58.7463C118.691 60.2409 114.886 62.9222 113.681 67.764C118.556 65.0294 124.866 69.3501 126.12 76.2816L125.828 76.3583C125.165 81.1593 126.644 86.3862 129.508 89.3632C129.884 86.271 132.023 84.1665 134.126 82.8518C136.23 81.5372 138.558 80.5822 140.164 78.3226C142.067 75.6437 142.551 71.7285 143.307 68.1569C144.063 64.5853 145.498 60.7465 148.146 59.7512Z" fill="white"/>
<path d="M120.858 100.606C119.508 102.533 117.704 103.742 116.086 105.248C114.473 106.758 112.937 108.797 112.616 111.414C112.411 113.092 112.728 114.796 112.684 116.492C112.64 118.188 112.046 120.097 110.832 120.518C108.916 121.176 107.454 117.794 105.485 117.558C103.921 117.372 102.512 119.712 102.965 121.741C103.419 123.77 105.548 124.669 106.772 123.344C107.878 125.109 107.098 128.311 105.436 128.853C105.261 129.965 105.085 131.072 104.915 132.184C100.713 129.39 96.4682 126.55 92.8956 122.459C88.9222 117.948 86.4577 112.411 85.8185 106.559C85.3555 101.857 86.0427 96.478 83.7715 92.8598C81.9534 89.9642 78.834 89.3248 76.0266 89.5056C75.5149 89.538 74.9982 89.5935 74.4865 89.6538C76.1421 84.9271 78.2449 80.3527 80.769 75.9867C81.3402 75.7536 81.871 75.4397 82.3433 75.0555C84.9558 72.9475 86.1158 68.6806 88.236 65.7294C88.3725 65.5395 88.5138 65.3541 88.66 65.1735C90.829 62.4818 93.7339 61.0965 96.5413 59.8085C102.756 56.9408 109.15 54.036 115.711 54.4344L113.844 54.6058C111.665 60.4062 109.485 66.2066 107.303 72.007C106.972 72.8965 106.637 73.7876 106.299 74.6802C105.061 77.9788 103.784 81.4906 103.974 85.183C104.086 87.3697 104.886 89.7047 106.406 90.4552C107.825 91.1502 109.375 90.2977 110.744 89.4545C111.324 89.1024 111.899 88.7503 112.479 88.3936C114.561 87.1195 116.866 85.8131 119.064 86.6655C121.077 87.4439 122.564 90.0429 122.846 92.8458C123.106 95.5705 122.406 98.2998 120.858 100.606V100.606Z" fill="white"/>
<path d="M133.236 140.207C127.157 136.649 121.079 133.092 115.001 129.535L115.104 129.282C111.324 130.65 109.755 137.036 110.38 142.258C111.005 147.48 113.122 152.148 114.192 157.236C115.635 164.199 115.09 171.402 112.615 178.098C120.608 169.573 127.681 160.308 133.73 150.442C134.574 149.199 135.218 147.842 135.639 146.417C136.026 144.9 135.966 143.078 135.193 141.862C134.695 141.164 134.023 140.595 133.236 140.207V140.207Z" fill="white"/>
<path d="M109.246 75.4872C108.601 76.8666 108.353 78.706 108.938 80.1332C109.537 81.5909 110.801 82.2497 111.965 82.7981L115.324 84.3805C116.441 84.907 117.646 85.4387 118.785 85.0056C120.158 84.4832 121.111 82.4359 120.865 80.5353C120.602 78.5129 119.261 77.1217 118.021 75.937C116.285 74.2791 114.549 72.6212 112.813 70.9633L111.835 72.1022C110.777 73.0833 109.902 74.2278 109.246 75.4872V75.4872Z" fill="white"/>
<path d="M227.472 97.1081C228.983 97.4463 230.494 97.7845 232.005 98.1227C231.741 102.973 229.212 107.463 225.819 109.089C224.406 109.765 222.832 110.015 221.662 111.28C220.604 112.429 220.068 114.217 219.576 115.927C218.713 118.911 217.85 121.894 216.988 124.878C216.062 128.093 214.872 131.665 212.465 132.823C210.398 133.819 208.034 132.601 206.445 130.558C204.856 128.515 203.886 125.767 202.946 123.089C203.004 126.008 201.576 128.871 199.553 129.886C197.526 130.9 195.06 129.983 193.705 127.718C192.73 126.092 192.325 123.946 191.37 122.297C190.415 120.648 188.411 119.703 187.368 121.25C186.681 122.279 186.769 123.854 186.428 125.16C185.896 127.19 184.288 128.464 182.694 128.575C181.105 128.686 179.555 127.815 178.225 126.634C175.481 124.187 173.458 120.305 172.673 115.992C172.327 114.069 172.23 111.975 172.829 110.173C173.429 108.371 174.876 106.981 176.314 107.324C177.26 105.424 175.393 102.904 173.711 103.126C172.025 103.349 170.704 105.067 169.32 106.388C167.941 107.708 166.011 108.667 164.621 107.356C164.631 108.575 163.588 109.381 162.686 109.279C161.79 109.181 160.99 108.496 160.167 108.009C156.984 106.124 152.943 107.375 150.682 110.942C152.095 105.225 154.167 98.6647 158.509 97.3212C160.284 96.7699 162.219 97.2239 163.895 96.2695C166.864 94.5785 167.463 88.1897 164.899 85.5536C165.226 88.0461 165.163 90.9555 163.778 92.6605C162.394 94.3654 159.489 93.2534 159.665 90.7332C159.265 92.4705 157.276 92.7346 156.36 91.4003C155.439 90.0661 155.517 87.884 156.17 86.2902C156.823 84.6965 157.934 83.5522 159.011 82.4542C161.327 80.096 163.676 77.7101 166.357 76.2275C169.042 74.745 172.142 74.2447 174.832 75.7179C176.251 76.4962 177.499 77.7935 178.946 78.4791C180.394 79.1694 182.231 79.0814 183.191 77.4691C184.269 75.6716 183.762 73.003 184.161 70.7561C184.878 66.7857 189.055 64.9279 191.37 67.5501C189.64 67.1285 187.851 69.0743 187.636 71.4325C187.417 73.7906 188.67 76.172 190.346 76.8854C193.164 78.0714 195.922 75.0878 198.052 72.3266C200.275 69.4357 202.501 66.5463 204.73 63.6585C205.086 63.1668 205.485 62.7049 205.924 62.2779C206.622 61.6311 207.553 61.2607 208.527 61.2418C209.502 61.2228 210.448 61.5568 211.173 62.176C213.425 63.9225 214.483 67.5038 216.33 69.9685C219.01 73.5497 223.022 74.4207 226.755 75.1156C229.538 75.6299 232.323 76.1472 235.109 76.6677C236.967 79.9521 238.587 83.3528 239.959 86.8462C235.241 88.7503 230.888 92.3131 227.472 97.1081Z" fill="white"/>
<path d="M236.469 152.851C234.381 156.882 231.952 160.744 229.207 164.401C227.452 163.688 225.566 164.962 223.923 166.157C222.208 167.408 220.146 168.626 218.387 167.487C216.588 166.319 216.008 163.053 216.578 160.463C217.149 157.878 218.572 155.821 219.951 153.866C221.413 151.79 222.978 149.636 225.01 148.83C227.048 148.024 229.665 149.163 230.26 151.915L231.702 151.869C230.893 150.813 231.317 148.626 232.404 148.241C233.657 147.792 234.744 149.427 235.485 150.873C235.816 151.526 236.152 152.184 236.469 152.851Z" fill="white"/>
<path d="M181.215 133.282C178.114 133.468 175.657 129.839 174.025 126.269C172.393 122.699 170.903 118.617 168.105 116.8C166.507 115.762 164.684 115.619 162.95 115.116C161.216 114.613 159.4 113.572 158.571 111.452L156.604 110.697C154.006 112.085 151.374 113.499 149.136 115.759C146.625 118.294 145.061 121.543 144.686 125.006C144.31 128.749 145.697 132.922 148.29 134.328C150.339 135.439 152.724 134.739 154.799 135.756C157.392 137.027 158.931 140.718 159.514 144.362C160.097 148.007 159.949 151.794 160.366 155.48C160.783 159.166 161.932 163.001 164.309 164.89C167.285 167.253 171.651 165.289 172.986 160.987C173.64 158.876 173.618 156.495 174.108 154.304C174.97 150.446 177.297 147.583 179.143 144.418C180.989 141.254 182.442 136.955 181.215 133.282Z" fill="white"/>
<path d="M150.572 95.3705C150.861 95.6235 151.131 95.8958 151.38 96.1853C151.637 96.6068 151.768 97.087 151.759 97.5742C151.751 98.0613 151.602 98.537 151.33 98.9499C151.704 98.9297 152.069 98.836 152.402 98.6749C152.736 98.5138 153.03 98.2887 153.268 98.0138C153.834 97.4011 154.332 96.7344 154.753 96.0245C155.07 95.5342 155.406 94.8714 155.191 94.2892C155.045 93.8918 154.699 93.7222 154.456 93.4234C154.071 92.9497 153.975 92.1973 153.776 91.5471C153.346 90.1428 152.315 89.1102 151.196 88.9626L151.352 88.9909C150.884 89.1431 150.558 89.8486 150.661 90.4834C150.755 91.0616 151.146 91.5415 151.107 92.1312C151.051 92.979 150.16 93.3769 150.105 94.2249C150.096 94.6503 150.264 95.0618 150.572 95.3705V95.3705Z" fill="white"/>
<path d="M145.259 80.9626C145.264 80.9614 145.268 80.9611 145.273 80.96C145.368 80.8772 145.456 80.7875 145.537 80.6916L145.259 80.9626Z" fill="#E6E6E6"/>
<path d="M146.189 84.9419C146.875 84.5228 147.258 83.3637 147.031 82.3937C146.806 81.4296 146.008 80.7814 145.273 80.9594C145.06 81.165 144.795 81.3157 144.503 81.3972C144.212 81.4788 143.903 81.4886 143.607 81.4257C143.152 81.3144 142.653 81.0279 142.259 81.3535C142.033 81.5967 141.875 81.8897 141.799 82.2058C141.653 82.6317 141.508 83.0576 141.362 83.4834C141.292 83.6359 141.274 83.8049 141.31 83.9675C141.338 84.0327 141.383 84.0899 141.441 84.1337C141.499 84.1775 141.568 84.2064 141.641 84.2176C142.516 84.463 143.392 84.7084 144.268 84.9538C144.906 85.1326 145.595 85.3049 146.189 84.9419Z" fill="white"/>
<path d="M212.301 139.888C211.896 139.258 211.491 138.628 211.086 137.998C210.689 137.268 210.145 136.619 209.486 136.088C209.341 135.972 209.173 135.886 208.993 135.833C208.812 135.78 208.622 135.762 208.434 135.78C208.246 135.798 208.064 135.851 207.898 135.937C207.732 136.023 207.585 136.14 207.467 136.28L207.517 136.64C208.439 137.74 209.416 138.963 209.65 140.596C209.742 141.24 209.71 141.906 209.791 142.552C209.872 143.199 210.102 143.87 210.541 144.148C211.178 144.553 211.927 143.956 212.38 143.228C212.786 142.63 212.968 141.919 212.897 141.211C212.796 140.736 212.593 140.285 212.301 139.888V139.888Z" fill="white"/>
<path d="M230.317 115.828C230.434 115.098 230.551 114.369 230.668 113.639C230.858 112.837 230.882 112.008 230.738 111.198C230.705 111.021 230.636 110.852 230.533 110.701C230.431 110.55 230.298 110.42 230.142 110.318C229.986 110.217 229.81 110.146 229.625 110.11C229.44 110.074 229.249 110.074 229.063 110.109L228.857 110.415C228.818 111.821 228.736 113.354 227.809 114.747C227.444 115.296 226.967 115.786 226.591 116.33C226.215 116.875 225.937 117.528 226.084 118.01C226.297 118.71 227.274 118.712 228.115 118.432C228.83 118.223 229.451 117.791 229.876 117.205C230.121 116.78 230.271 116.311 230.317 115.828V115.828Z" fill="#E6E6E6"/>
<path d="M218.651 140.707C218.849 140.167 218.563 139.546 218.503 138.949C218.474 138.177 218.689 137.414 219.121 136.76C219.55 136.142 219.875 135.465 220.084 134.753C220.173 134.428 220.156 134.086 220.038 133.77C219.904 133.483 219.58 133.353 219.393 133.58L219.792 133.823C219.254 133.732 218.701 133.758 218.175 133.898C217.875 134.007 217.607 134.183 217.394 134.412C217.18 134.64 217.028 134.915 216.95 135.211C216.884 135.673 216.776 136.129 216.628 136.573C216.391 137.037 215.931 137.192 215.642 137.599C215.444 137.961 215.345 138.363 215.352 138.77C215.359 139.177 215.473 139.576 215.682 139.93C216.045 140.511 216.622 140.942 217.302 141.141C217.788 141.307 218.429 141.315 218.651 140.707Z" fill="white"/>
<path d="M229.96 143.951C230.136 144.386 230.371 144.797 230.661 145.173C231.202 145.692 231.938 145.373 232.595 145.247C233.191 145.158 233.801 145.223 234.361 145.437C234.921 145.65 235.41 146.004 235.776 146.46C235.521 145.252 234.965 144.121 234.155 143.16C233.345 142.199 232.303 141.437 231.119 140.937C229.571 140.337 227.94 140.279 226.33 140.226L226.052 140.293C226.76 142.254 228.986 142.21 229.96 143.951Z" fill="white"/>
<path d="M182.063 147.962L182.067 147.97C182.094 147.921 182.121 147.872 182.147 147.822L182.063 147.962Z" fill="#E6E6E6"/>
<path d="M180.347 151.118C179.973 151.764 179.651 152.436 179.385 153.128C179.032 154.249 178.798 155.401 178.687 156.567C178.6 157.229 178.573 158.076 179.01 158.399C179.135 158.478 179.287 158.511 179.436 158.492C179.585 158.472 179.722 158.402 179.821 158.294C180.063 158.05 180.262 157.769 180.408 157.464C181.267 156.058 181.933 154.554 182.392 152.989C182.81 151.34 182.806 149.398 182.067 147.97C181.494 149.019 180.921 150.069 180.347 151.118Z" fill="white"/>
<path d="M163.797 67.0235C164.069 67.2767 164.414 67.4486 164.788 67.5179C165.162 67.5873 165.549 67.5512 165.902 67.414C166.632 67.1105 167.302 66.6898 167.882 66.1704C168.363 65.8325 168.771 65.4098 169.083 64.9254C169.255 64.636 169.366 64.3171 169.408 63.987C169.45 63.6569 169.423 63.3222 169.329 63.002C169.057 62.2479 168.369 61.9952 167.762 61.824C166.79 61.55 165.818 61.2761 164.846 61.0021L165.549 60.3997C164.826 60.0306 164.025 60.7155 163.573 61.5635C163.283 62.1172 163.081 62.7087 162.973 63.3187C162.731 64.6497 162.968 66.2346 163.797 67.0235Z" fill="#E6E6E6"/>
<path d="M180.958 61.5473C181.232 61.8344 181.611 62.0116 182.017 62.0431C182.424 62.0745 182.827 61.9578 183.147 61.7165C183.421 61.5204 183.65 61.2714 183.816 60.9859C183.983 60.7004 184.085 60.3846 184.115 60.0593C184.183 59.3325 183.805 58.5247 183.265 58.462L183.389 57.7815C182.349 57.603 181.069 57.5672 180.511 58.7678C180.324 59.2278 180.266 59.7265 180.344 60.2143C180.423 60.702 180.634 61.1617 180.958 61.5473Z" fill="#E6E6E6"/>
<path d="M178.666 25.362C172.568 24.7082 166.447 26.3837 161.649 30.0198C156.85 33.656 153.768 38.955 153.081 44.7511C151.648 56.8208 158.338 83.0307 170.534 93.8804C176.277 73.0931 196.401 60.7633 199.064 49.6814C201.909 37.84 191.363 26.7235 178.666 25.362Z" fill="#EE24FF"/>
<path d="M174.448 52.1944C178.616 52.1944 181.994 48.9831 181.994 45.0218C181.994 41.0605 178.616 37.8492 174.448 37.8492C170.281 37.8492 166.902 41.0605 166.902 45.0218C166.902 48.9831 170.281 52.1944 174.448 52.1944Z" fill="white"/>
<path d="M166.514 104.222C169.244 104.222 171.457 102.119 171.457 99.5244C171.457 96.9298 169.244 94.8265 166.514 94.8265C163.785 94.8265 161.572 96.9298 161.572 99.5244C161.572 102.119 163.785 104.222 166.514 104.222Z" fill="#EE24FF"/>
<path opacity="0.2" d="M180.692 39.883C181.541 40.3681 182.282 41.0075 182.871 41.7647C183.46 42.5218 183.887 43.3819 184.127 44.2959C184.367 45.2098 184.415 46.1596 184.268 47.0912C184.122 48.0227 183.783 48.9177 183.273 49.7251C182.763 50.5325 182.09 51.2364 181.293 51.7966C180.497 52.3568 179.592 52.7625 178.631 52.9903C176.689 53.4505 174.634 53.1585 172.919 52.1788C174.668 52.5486 176.498 52.3147 178.082 51.519C179.666 50.7232 180.901 49.4175 181.565 47.8357C182.229 46.2538 182.279 44.499 181.706 42.8853C181.133 41.2716 179.974 39.9044 178.438 39.0283C179.233 39.1958 179.994 39.4844 180.692 39.883V39.883Z" fill="#231F20"/>
<path opacity="0.2" d="M199.093 49.7046C196.431 60.7865 176.307 73.1163 170.564 93.9036C169.417 92.8734 168.352 91.764 167.377 90.5845C173.83 71.045 192.701 59.1722 195.274 48.4651C197.576 38.882 191.108 29.7746 181.827 25.9274C193.062 28.6118 201.701 38.8531 199.093 49.7046Z" fill="#231F20"/>
<path d="M107.953 53.3484C103.374 52.8574 98.7773 54.1156 95.1741 56.8462C91.5708 59.5769 89.2564 63.5562 88.7398 67.9089C87.6642 76.9728 92.6879 96.6555 101.847 104.803C106.16 89.1928 121.272 79.9335 123.272 71.6114C125.408 62.7189 117.489 54.3708 107.953 53.3484Z" fill="#EE24FF"/>
<path d="M104.786 73.4985C107.916 73.4985 110.453 71.087 110.453 68.1122C110.453 65.1374 107.916 62.7258 104.786 62.7258C101.657 62.7258 99.1196 65.1374 99.1196 68.1122C99.1196 71.087 101.657 73.4985 104.786 73.4985Z" fill="white"/>
<path d="M98.828 112.57C100.878 112.57 102.54 110.99 102.54 109.042C102.54 107.093 100.878 105.514 98.828 105.514C96.7782 105.514 95.1165 107.093 95.1165 109.042C95.1165 110.99 96.7782 112.57 98.828 112.57Z" fill="#EE24FF"/>
<path opacity="0.2" d="M109.475 64.2531C110.113 64.6174 110.669 65.0976 111.111 65.6662C111.554 66.2348 111.875 66.8807 112.055 67.5671C112.235 68.2534 112.271 68.9667 112.161 69.6662C112.051 70.3658 111.797 71.0379 111.413 71.6442C111.03 72.2505 110.525 72.7791 109.927 73.1998C109.329 73.6206 108.649 73.9252 107.927 74.0963C107.205 74.2674 106.455 74.3016 105.719 74.1971C104.983 74.0925 104.275 73.8512 103.638 73.4868C104.951 73.7646 106.326 73.5889 107.515 72.9913C108.705 72.3937 109.632 71.4132 110.13 70.2253C110.629 69.0374 110.667 67.7196 110.236 66.5077C109.806 65.2959 108.936 64.2692 107.782 63.6113C108.379 63.737 108.951 63.9538 109.475 64.2531Z" fill="#231F20"/>
<path opacity="0.2" d="M123.294 71.6288C121.294 79.951 106.182 89.2102 101.869 104.821C101.008 104.047 100.208 103.214 99.4758 102.328C104.322 87.6548 118.494 78.7387 120.426 70.698C122.155 63.5014 117.297 56.6621 110.328 53.7729C118.765 55.7889 125.252 63.4797 123.294 71.6288Z" fill="#231F20"/>
<path d="M285.365 248.472H279.143L276.183 225.661L285.366 225.661L285.365 248.472Z" fill="#A0616A"/>
<path d="M288.712 259.702H284.297L283.509 255.74L281.491 259.702H269.781C269.22 259.702 268.673 259.531 268.221 259.215C267.769 258.899 267.435 258.453 267.268 257.944C267.101 257.435 267.11 256.888 267.293 256.384C267.476 255.879 267.824 255.444 268.286 255.141L277.636 249.002V244.997L287.472 245.555L288.712 259.702Z" fill="#2F2E41"/>
<path d="M261.266 248.472H255.044L252.084 225.661L261.267 225.661L261.266 248.472Z" fill="#A0616A"/>
<path d="M264.613 259.702H260.198L259.41 255.74L257.392 259.702H245.683C245.121 259.702 244.575 259.531 244.123 259.215C243.671 258.899 243.337 258.453 243.17 257.944C243.003 257.435 243.011 256.888 243.194 256.384C243.377 255.879 243.725 255.444 244.187 255.141L253.538 249.002V244.997L263.373 245.555L264.613 259.702Z" fill="#2F2E41"/>
<path d="M237.629 188.245C238.82 189.943 251.772 236.61 251.772 236.61L263.258 237.855L261.894 226.113L259.811 205.334L256.584 191.465C256.584 191.465 267.978 166.815 268.699 164.852L269.211 163.443L272.771 194.153C273.194 195.249 273.378 196.416 273.313 197.582C273.205 199.5 275.229 228.36 275.229 228.36L276.203 238.71L286.043 240.009L290.035 222.101C293.369 216.284 291.458 195.613 290.095 193.689C288.731 191.765 289.273 178.365 289.273 178.365C291.014 177.782 301.395 144.134 296.203 144.333C296.536 142.539 296.798 140.938 296.798 140.938L287.785 134.028L265.228 128.455L259.537 125.857C259.537 125.857 249.373 143.722 249.474 144.61C249.614 145.736 249.343 146.872 248.706 147.83L238.444 180.476C238.444 180.476 236.426 186.53 237.629 188.245Z" fill="#2F2E41"/>
<path d="M294.299 71.4278L290.71 64.1857L278.497 64.6319L274.513 72.1661C274.513 72.1661 263.128 85.0919 262.759 89.2949C262.296 94.581 266.148 120.488 262.296 118.809C262.296 118.809 253.215 128.941 258.588 128.941C263.962 128.941 288.268 143.444 289.863 145.075C291.458 146.706 298.578 147.764 297.981 144.359C297.383 140.954 294.299 122.539 294.299 122.539L302.649 93.5824C305.053 87.3308 305.801 80.3184 300.368 76.1191L294.299 71.4278Z" fill="#CCCCCC"/>
<path d="M249.059 50.1125C247.425 49.4961 245.68 49.1916 243.922 49.2163C242.165 49.2411 240.43 49.5947 238.816 50.2568C237.202 50.919 235.742 51.8768 234.517 53.0755C233.293 54.2743 232.329 55.6905 231.681 57.2433C228.953 63.7739 228.501 79.3694 233.577 87.1857C240.102 76.411 253.304 72.4325 256.561 66.6309C260.04 60.4317 255.929 52.7048 249.059 50.1125Z" fill="#EE24FF"/>
<path d="M243.565 64.627C245.975 64.627 247.93 62.7694 247.93 60.4779C247.93 58.1864 245.975 56.3287 243.565 56.3287C241.154 56.3287 239.2 58.1864 239.2 60.4779C239.2 62.7694 241.154 64.627 243.565 64.627Z" fill="white"/>
<path d="M230.431 92.4735C232.01 92.4735 233.29 91.2568 233.29 89.7559C233.29 88.255 232.01 87.0383 230.431 87.0383C228.852 87.0383 227.572 88.255 227.572 89.7559C227.572 91.2568 228.852 92.4735 230.431 92.4735Z" fill="#EE24FF"/>
<path opacity="0.2" d="M247.87 58.5104C248.67 59.305 249.105 60.369 249.08 61.4684C249.055 62.5678 248.572 63.6128 247.736 64.3737C246.901 65.1346 245.782 65.5492 244.626 65.5264C243.469 65.5036 242.369 65.0453 241.568 64.2521C242.485 64.7109 243.544 64.8445 244.555 64.6289C245.567 64.4133 246.464 63.8626 247.088 63.0755C247.711 62.2883 248.019 61.316 247.957 60.3325C247.895 59.3491 247.467 58.4188 246.749 57.7081C247.166 57.9162 247.545 58.1872 247.87 58.5104Z" fill="#231F20"/>
<path opacity="0.2" d="M256.573 66.6481C253.317 72.4497 240.115 76.4282 233.589 87.2029C233.114 86.4623 232.696 85.6893 232.34 84.8902C239.063 74.9146 251.493 71.0104 254.639 65.4051C257.455 60.3881 255.299 54.3711 250.733 50.8843C256.576 54.004 259.762 60.9671 256.573 66.6481Z" fill="#231F20"/>
<path d="M229.143 88.8202C229.807 88.69 230.494 88.6998 231.154 88.8491C231.814 88.9984 232.432 89.2835 232.964 89.6842C233.495 90.085 233.928 90.5917 234.232 91.1686C234.535 91.7456 234.702 92.3787 234.72 93.0235L244.623 96.6367L243.78 102.892L229.871 97.6033C228.73 97.5604 227.644 97.1211 226.821 96.3684C225.997 95.6156 225.492 94.6019 225.403 93.5193C225.313 92.4367 225.644 91.3603 226.333 90.4942C227.023 89.6282 228.022 89.0325 229.143 88.8202L229.143 88.8202Z" fill="#A0616A"/>
<path d="M298.336 75.9287C297.294 75.3237 296.136 74.9203 294.929 74.7416C293.722 74.5629 292.489 74.6124 291.302 74.8874C290.116 75.1624 288.997 75.6574 288.012 76.3441C287.027 77.0307 286.194 77.8954 285.562 78.8887L271.347 101.2L239.21 93.9591L236.282 101.6L277.437 120.13L298.281 88.573C301.402 84.4044 302.93 78.5947 298.336 75.9287Z" fill="#CCCCCC"/>
<path d="M298.867 48.5853C298.868 50.7357 298.313 52.8534 297.252 54.7526C296.191 56.6518 294.656 58.2743 292.781 59.4777C290.906 60.6811 288.749 61.4286 286.499 61.6547C284.249 61.8807 281.975 61.5783 279.877 60.7741C277.779 59.9698 275.921 58.6883 274.465 57.042C273.01 55.3957 272.002 53.435 271.529 51.3319C271.057 49.2288 271.136 47.0477 271.757 44.9801C272.379 42.9125 273.525 41.0215 275.095 39.4732L275.161 39.4102C275.272 39.2998 275.383 39.1895 275.499 39.0843C275.499 39.0843 275.5 39.0842 275.501 39.0839C275.501 39.0837 275.502 39.0833 275.503 39.0828C275.503 39.0823 275.503 39.0817 275.504 39.0811C275.504 39.0804 275.504 39.0798 275.504 39.0791C275.648 38.953 275.792 38.8268 275.941 38.706C277.938 37.0417 280.397 35.9598 283.025 35.5898C285.652 35.2198 288.336 35.5774 290.755 36.6198C293.174 37.6621 295.226 39.3451 296.664 41.4673C298.103 43.5894 298.868 46.0607 298.867 48.5853V48.5853Z" fill="#2F2E41"/>
<path d="M281.641 62.6411C288.042 62.6411 293.231 57.7089 293.231 51.6249C293.231 45.5408 288.042 40.6087 281.641 40.6087C275.24 40.6087 270.052 45.5408 270.052 51.6249C270.052 57.7089 275.24 62.6411 281.641 62.6411Z" fill="#9E616A"/>
<path d="M293.948 54.7665L292.028 54.4441C290.955 54.2587 289.967 53.7664 289.196 53.0329C288.426 52.2994 287.909 51.3598 287.716 50.3397L285.842 53.3245L285.76 53.3503C281.296 54.7592 276.651 54.3378 271.563 52.0639C270.109 51.408 268.698 50.6684 267.338 49.8493L267.237 49.7897L267.229 49.6776C266.97 46.0939 267.816 43.1001 269.612 41.2475C270.301 40.5505 271.138 39.9998 272.067 39.6317C272.997 39.2635 273.997 39.0861 275.003 39.1112C275.075 39.0934 275.141 39.0589 275.195 39.0107C275.221 38.9927 275.246 38.9748 275.272 38.9578V38.9393L275.405 38.8797C275.691 38.752 275.983 38.6296 276.274 38.5177C278.567 37.6739 281.065 37.4622 283.479 37.907C285.893 38.3518 288.126 39.435 289.922 41.0322C293.491 44.2717 295.129 49.7082 293.996 54.5607L293.948 54.7665Z" fill="#2F2E41"/>
<path d="M318.393 64.1524C314.449 62.2174 319.521 55.1948 318.502 51.0889C317.483 46.983 310.143 45.6624 309.675 41.4672C309.208 37.272 308.108 32.945 305.195 29.7617C303.334 27.7275 300.592 26.2258 297.769 26.4806C296.814 26.5668 295.889 26.8477 295.058 27.3042C294.228 27.7606 293.51 28.3819 292.955 29.1257C292.399 29.8695 292.019 30.7183 291.84 31.6144C291.661 32.5104 291.687 33.4326 291.916 34.3182C291.113 33.2356 289.032 33.4702 288.517 34.7017C288.06 35.7965 289.071 37.1226 290.261 37.2195C291.818 39.0476 293.602 40.9877 296.042 41.3565C296.43 41.4414 296.834 41.4411 297.223 41.3559C297.612 41.2706 297.975 41.1025 298.285 40.8643C298.859 40.3404 298.904 39.2928 298.223 38.9013C301.289 40.059 303.087 43.2102 303.541 46.3162C303.996 49.4223 303.367 52.565 302.952 55.6761C302.537 58.7872 302.359 62.06 303.642 64.9491C305.158 68.3625 308.649 70.809 312.459 71.5936C316.269 72.3782 320.326 71.6114 323.775 69.8838C327.223 68.156 330.099 65.5186 332.448 62.5617C328.401 65.2929 322.803 66.3161 318.393 64.1524Z" fill="#2F2E41"/>
<path d="M293.455 54.4602C293.455 54.4602 290.022 42.2794 275.305 39.4679C275.289 39.4627 275.233 39.4417 275.161 39.4102C275.117 39.3839 275.062 39.3576 275.007 39.3314C275.172 39.242 275.333 39.1632 275.499 39.0843C275.499 39.0844 275.5 39.0842 275.501 39.084C275.501 39.0837 275.502 39.0833 275.503 39.0828C275.503 39.0823 275.503 39.0817 275.504 39.0811C275.504 39.0805 275.504 39.0798 275.504 39.0791C275.648 38.953 275.792 38.8269 275.941 38.706L276.361 38.7218C276.361 38.7218 291.127 36.499 293.455 54.4602Z" fill="#FD6584"/>
<path opacity="0.2" d="M285.768 93.5457L277.457 102.699L263.723 98.8441L278.695 105.402L285.768 93.5457Z" fill="black"/>
<path d="M335.658 260.391L207.866 260.527C207.719 260.526 207.58 260.471 207.476 260.373C207.373 260.274 207.315 260.141 207.315 260.002C207.315 259.863 207.373 259.73 207.476 259.632C207.58 259.534 207.719 259.478 207.866 259.478L335.658 259.342C335.804 259.342 335.945 259.398 336.048 259.496C336.152 259.594 336.21 259.728 336.21 259.867C336.21 260.006 336.152 260.139 336.048 260.238C335.945 260.336 335.804 260.391 335.658 260.391V260.391Z" fill="#CACACA"/>
<path d="M341.267 178.879C335.283 178.879 328.725 178.664 321.591 178.234C284.696 176.007 236.904 168.264 187.021 156.433C137.138 144.601 91.122 130.093 57.4509 115.582C41.0487 108.513 28.4602 101.822 20.0353 95.6941C11.1155 89.2066 7.21386 83.5518 8.43829 78.8873C10.8241 69.8 31.9488 67.8119 49.2503 67.7444L49.2562 69.0659C25.4967 69.1586 11.4798 72.7604 9.78743 79.2074C7.63159 87.4186 25.2136 100.238 58.025 114.378C91.6221 128.857 137.553 143.337 187.358 155.151C237.162 166.964 284.865 174.693 321.68 176.915C357.632 179.086 379.49 175.621 381.646 167.41C383.435 160.592 371.636 150.549 348.422 139.13L349.061 137.956C365.929 146.254 385.508 158.155 382.995 167.73C381.77 172.395 375.531 175.644 364.45 177.387C358.134 178.381 350.376 178.879 341.267 178.879Z" fill="#EE24FF"/>
</g>
<defs>
<clipPath id="clip0_59_12">
<rect width="382.428" height="260.527" fill="white" transform="translate(0.78595)"/>
</clipPath>
</defs>
</svg>
